<svg width="26" height="33" viewBox="0 0 26 33" fill="none" xmlns="http://www.w3.org/2000/svg">
<path d="M12.7617 0.571518C13.667 0.571518 14.4033 1.30699 14.4033 2.21541C14.4033 2.86536 14.0257 3.4279 13.4772 3.69396C13.5095 3.77948 13.5265 3.8707 13.5265 3.96763V5.28274C13.5265 5.40627 13.4962 5.5241 13.4449 5.62862C18.6146 5.92699 22.7157 10.2182 22.7157 15.4711C22.7157 20.7239 18.309 25.3287 12.8718 25.3287C7.43455 25.3287 3.02783 20.9159 3.02783 15.4711C3.02783 10.2923 7.01703 6.04482 12.0861 5.64383C12.0292 5.5374 11.9969 5.41387 11.9969 5.28464V3.96953C11.9969 3.8726 12.014 3.78138 12.0462 3.69586C11.4978 3.4298 11.1201 2.86726 11.1201 2.21731C11.1201 1.31079 11.8546 0.573418 12.7617 0.573418V0.571518ZM13.1109 15.0777C13.0084 15.1613 12.5757 15.511 12.6459 16.007C12.701 16.4023 13.0521 16.7368 13.517 16.8204C13.8776 16.2845 14.5741 15.1708 14.2705 14.8458C14.0731 14.633 13.4734 14.7831 13.1109 15.0777Z" fill="#9500FF"/>
<path d="M25.8967 27.1132C24.2418 28.8673 22.2472 30.2642 20.0343 31.2201C17.8215 32.176 15.4378 32.6701 13.0295 32.672C10.6193 32.672 8.23562 32.1836 6.02087 31.2315C3.80612 30.2794 1.80962 28.8844 0.152832 27.1341L3.45503 24.0003C4.68671 25.3021 6.1708 26.3378 7.8162 27.0467C9.4616 27.7556 11.2342 28.1186 13.0257 28.1167C14.8172 28.1167 16.5879 27.748 18.2333 27.0372C19.8768 26.3264 21.3609 25.2888 22.5907 23.9851L25.8986 27.1132H25.8967Z" fill="#9500FF"/>
<path d="M16.1076 12.6167H9.49376C7.98759 12.6167 6.7666 13.8394 6.7666 15.3477C6.7666 16.8559 7.98759 18.0786 9.49376 18.0786H16.1076C17.6138 18.0786 18.8348 16.8559 18.8348 15.3477C18.8348 13.8394 17.6138 12.6167 16.1076 12.6167Z" fill="white"/>
<path d="M9.84111 16.5089C10.3861 16.5089 10.828 16.0664 10.828 15.5206C10.828 14.9749 10.3861 14.5324 9.84111 14.5324C9.29608 14.5324 8.85425 14.9749 8.85425 15.5206C8.85425 16.0664 9.29608 16.5089 9.84111 16.5089Z" fill="#9500FF"/>
<path d="M15.4698 16.334C16.0148 16.334 16.4566 15.8915 16.4566 15.3457C16.4566 14.8 16.0148 14.3575 15.4698 14.3575C14.9247 14.3575 14.4829 14.8 14.4829 15.3457C14.4829 15.8915 14.9247 16.334 15.4698 16.334Z" fill="#9500FF"/>
<path d="M13.1147 17.8847C14.0162 17.8562 14.9158 17.8296 15.8172 17.8011C15.9842 18.4036 16.1512 19.006 16.3183 19.6103C15.2517 19.0345 14.1832 18.4606 13.1166 17.8847H13.1147Z" fill="white"/>
</svg>
